<mxfile host="app.diagrams.net" modified="2023-03-30T07:28:46.112Z" agent="Mozilla/5.0 (Macintosh; Intel Mac OS X 10_15_7) AppleWebKit/537.36 (KHTML, like Gecko) Chrome/111.0.0.0 Safari/537.36" etag="rJg8gLAlcCS0UR_MH7cT" version="21.1.1" type="github">
  <diagram name="第 1 页" id="cDu-nd81y8ZBENEwocHq">
    <mxGraphModel dx="1242" dy="796" grid="1" gridSize="10" guides="1" tooltips="1" connect="1" arrows="1" fold="1" page="1" pageScale="1" pageWidth="827" pageHeight="1169" math="0" shadow="0">
      <root>
        <mxCell id="0" />
        <mxCell id="1" parent="0" />
        <mxCell id="DfRIseQvaOyFvM4dR8Jv-5" value="应用中心" style="shape=umlLifeline;perimeter=lifelinePerimeter;whiteSpace=wrap;html=1;container=1;dropTarget=0;collapsible=0;recursiveResize=0;outlineConnect=0;portConstraint=eastwest;newEdgeStyle={&quot;edgeStyle&quot;:&quot;elbowEdgeStyle&quot;,&quot;elbow&quot;:&quot;vertical&quot;,&quot;curved&quot;:0,&quot;rounded&quot;:0};fillColor=#dae8fc;strokeColor=#6c8ebf;fontSize=14;" vertex="1" parent="1">
          <mxGeometry x="70" y="585" width="240" height="500" as="geometry" />
        </mxCell>
        <mxCell id="DfRIseQvaOyFvM4dR8Jv-6" value="" style="html=1;points=[];perimeter=orthogonalPerimeter;outlineConnect=0;targetShapes=umlLifeline;portConstraint=eastwest;newEdgeStyle={&quot;edgeStyle&quot;:&quot;elbowEdgeStyle&quot;,&quot;elbow&quot;:&quot;vertical&quot;,&quot;curved&quot;:0,&quot;rounded&quot;:0};fillColor=#dae8fc;strokeColor=#6c8ebf;fontSize=14;" vertex="1" parent="DfRIseQvaOyFvM4dR8Jv-5">
          <mxGeometry x="102.5" y="95" width="35" height="285" as="geometry" />
        </mxCell>
        <mxCell id="DfRIseQvaOyFvM4dR8Jv-19" value="" style="html=1;points=[];perimeter=orthogonalPerimeter;outlineConnect=0;targetShapes=umlLifeline;portConstraint=eastwest;newEdgeStyle={&quot;edgeStyle&quot;:&quot;elbowEdgeStyle&quot;,&quot;elbow&quot;:&quot;vertical&quot;,&quot;curved&quot;:0,&quot;rounded&quot;:0};fontSize=14;" vertex="1" parent="DfRIseQvaOyFvM4dR8Jv-5">
          <mxGeometry x="133" y="135" width="10" height="40" as="geometry" />
        </mxCell>
        <mxCell id="DfRIseQvaOyFvM4dR8Jv-20" value="1.新建应用" style="html=1;align=left;spacingLeft=2;endArrow=block;rounded=0;edgeStyle=orthogonalEdgeStyle;curved=0;rounded=0;fontSize=14;" edge="1" target="DfRIseQvaOyFvM4dR8Jv-19" parent="DfRIseQvaOyFvM4dR8Jv-5">
          <mxGeometry relative="1" as="geometry">
            <mxPoint x="142.5" y="115" as="sourcePoint" />
            <Array as="points">
              <mxPoint x="172.5" y="145" />
            </Array>
          </mxGeometry>
        </mxCell>
        <mxCell id="DfRIseQvaOyFvM4dR8Jv-21" value="" style="html=1;points=[];perimeter=orthogonalPerimeter;outlineConnect=0;targetShapes=umlLifeline;portConstraint=eastwest;newEdgeStyle={&quot;edgeStyle&quot;:&quot;elbowEdgeStyle&quot;,&quot;elbow&quot;:&quot;vertical&quot;,&quot;curved&quot;:0,&quot;rounded&quot;:0};fontSize=14;" vertex="1" parent="DfRIseQvaOyFvM4dR8Jv-5">
          <mxGeometry x="133" y="295" width="10" height="40" as="geometry" />
        </mxCell>
        <mxCell id="DfRIseQvaOyFvM4dR8Jv-22" value="4.应用中心绑定权限中心返回的应用id" style="html=1;align=left;spacingLeft=2;endArrow=block;rounded=0;edgeStyle=orthogonalEdgeStyle;curved=0;rounded=0;fontSize=14;" edge="1" target="DfRIseQvaOyFvM4dR8Jv-21" parent="DfRIseQvaOyFvM4dR8Jv-5">
          <mxGeometry x="0.0118" relative="1" as="geometry">
            <mxPoint x="138" y="275" as="sourcePoint" />
            <Array as="points">
              <mxPoint x="168" y="305" />
            </Array>
            <mxPoint as="offset" />
          </mxGeometry>
        </mxCell>
        <mxCell id="DfRIseQvaOyFvM4dR8Jv-7" value="权限中心" style="shape=umlLifeline;perimeter=lifelinePerimeter;whiteSpace=wrap;html=1;container=1;dropTarget=0;collapsible=0;recursiveResize=0;outlineConnect=0;portConstraint=eastwest;newEdgeStyle={&quot;edgeStyle&quot;:&quot;elbowEdgeStyle&quot;,&quot;elbow&quot;:&quot;vertical&quot;,&quot;curved&quot;:0,&quot;rounded&quot;:0};fillColor=#dae8fc;strokeColor=#6c8ebf;fontSize=14;" vertex="1" parent="1">
          <mxGeometry x="450" y="585" width="240" height="500" as="geometry" />
        </mxCell>
        <mxCell id="DfRIseQvaOyFvM4dR8Jv-8" value="" style="html=1;points=[];perimeter=orthogonalPerimeter;outlineConnect=0;targetShapes=umlLifeline;portConstraint=eastwest;newEdgeStyle={&quot;edgeStyle&quot;:&quot;elbowEdgeStyle&quot;,&quot;elbow&quot;:&quot;vertical&quot;,&quot;curved&quot;:0,&quot;rounded&quot;:0};fillColor=#dae8fc;strokeColor=#6c8ebf;fontSize=14;" vertex="1" parent="DfRIseQvaOyFvM4dR8Jv-7">
          <mxGeometry x="102.5" y="85" width="35" height="175" as="geometry" />
        </mxCell>
        <mxCell id="DfRIseQvaOyFvM4dR8Jv-17" value="" style="html=1;points=[];perimeter=orthogonalPerimeter;outlineConnect=0;targetShapes=umlLifeline;portConstraint=eastwest;newEdgeStyle={&quot;edgeStyle&quot;:&quot;elbowEdgeStyle&quot;,&quot;elbow&quot;:&quot;vertical&quot;,&quot;curved&quot;:0,&quot;rounded&quot;:0};fontSize=14;" vertex="1" parent="DfRIseQvaOyFvM4dR8Jv-7">
          <mxGeometry x="130" y="155" width="10" height="40" as="geometry" />
        </mxCell>
        <mxCell id="DfRIseQvaOyFvM4dR8Jv-18" value="3.新建应用" style="html=1;align=left;spacingLeft=2;endArrow=block;rounded=0;edgeStyle=orthogonalEdgeStyle;curved=0;rounded=0;fontSize=14;" edge="1" target="DfRIseQvaOyFvM4dR8Jv-17" parent="DfRIseQvaOyFvM4dR8Jv-7">
          <mxGeometry relative="1" as="geometry">
            <mxPoint x="135" y="135" as="sourcePoint" />
            <Array as="points">
              <mxPoint x="165" y="165" />
            </Array>
          </mxGeometry>
        </mxCell>
        <mxCell id="DfRIseQvaOyFvM4dR8Jv-12" value="2.将应用入驻到权限中心" style="html=1;verticalAlign=bottom;endArrow=block;edgeStyle=elbowEdgeStyle;elbow=vertical;curved=0;rounded=0;fontSize=14;" edge="1" parent="1" target="DfRIseQvaOyFvM4dR8Jv-7">
          <mxGeometry width="80" relative="1" as="geometry">
            <mxPoint x="210" y="770" as="sourcePoint" />
            <mxPoint x="290" y="770" as="targetPoint" />
          </mxGeometry>
        </mxCell>
        <mxCell id="DfRIseQvaOyFvM4dR8Jv-13" value="3.应用创建完成，返回应用id" style="html=1;verticalAlign=bottom;endArrow=open;dashed=1;endSize=8;edgeStyle=elbowEdgeStyle;elbow=vertical;curved=0;rounded=0;fontSize=14;" edge="1" parent="1" source="DfRIseQvaOyFvM4dR8Jv-8">
          <mxGeometry relative="1" as="geometry">
            <mxPoint x="290" y="820" as="sourcePoint" />
            <mxPoint x="210" y="820" as="targetPoint" />
          </mxGeometry>
        </mxCell>
      </root>
    </mxGraphModel>
  </diagram>
</mxfile>
